<mxfile host="app.diagrams.net" modified="2022-03-28T17:01:52.246Z" agent="5.0 (Windows NT 10.0; Win64; x64) AppleWebKit/537.36 (KHTML, like Gecko) Chrome/99.0.4844.82 Safari/537.36" etag="2TOz6WoZ-o3p-QQKbrMj" version="17.2.4" type="github">
  <diagram name="Page-1" id="5f0bae14-7c28-e335-631c-24af17079c00">
    <mxGraphModel dx="868" dy="450" grid="1" gridSize="10" guides="1" tooltips="1" connect="1" arrows="1" fold="1" page="1" pageScale="1" pageWidth="1100" pageHeight="850" background="none" math="0" shadow="0">
      <root>
        <mxCell id="0" />
        <mxCell id="1" parent="0" />
        <mxCell id="AqwrNknB-Fc5CEnVq79q-10" style="edgeStyle=orthogonalEdgeStyle;rounded=0;orthogonalLoop=1;jettySize=auto;html=1;" edge="1" parent="1" source="AqwrNknB-Fc5CEnVq79q-1">
          <mxGeometry relative="1" as="geometry">
            <mxPoint x="320" y="124" as="targetPoint" />
          </mxGeometry>
        </mxCell>
        <mxCell id="AqwrNknB-Fc5CEnVq79q-1" value="" style="shape=image;html=1;verticalAlign=top;verticalLabelPosition=bottom;labelBackgroundColor=#ffffff;imageAspect=0;aspect=fixed;image=https://cdn3.iconfinder.com/data/icons/inficons/128/github.png" vertex="1" parent="1">
          <mxGeometry x="60" y="60" width="128" height="128" as="geometry" />
        </mxCell>
        <mxCell id="AqwrNknB-Fc5CEnVq79q-20" style="edgeStyle=orthogonalEdgeStyle;rounded=0;orthogonalLoop=1;jettySize=auto;html=1;" edge="1" parent="1" source="AqwrNknB-Fc5CEnVq79q-11">
          <mxGeometry relative="1" as="geometry">
            <mxPoint x="640" y="124.5" as="targetPoint" />
          </mxGeometry>
        </mxCell>
        <mxCell id="AqwrNknB-Fc5CEnVq79q-11" value="" style="aspect=fixed;html=1;points=[];align=center;image;fontSize=12;image=img/lib/azure2/containers/Container_Instances.svg;" vertex="1" parent="1">
          <mxGeometry x="320" y="90" width="64" height="69" as="geometry" />
        </mxCell>
        <mxCell id="AqwrNknB-Fc5CEnVq79q-17" style="edgeStyle=orthogonalEdgeStyle;rounded=0;orthogonalLoop=1;jettySize=auto;html=1;startArrow=none;" edge="1" parent="1" source="AqwrNknB-Fc5CEnVq79q-18">
          <mxGeometry relative="1" as="geometry">
            <mxPoint x="496" y="160" as="targetPoint" />
          </mxGeometry>
        </mxCell>
        <mxCell id="AqwrNknB-Fc5CEnVq79q-16" value="" style="aspect=fixed;html=1;points=[];align=center;image;fontSize=12;image=img/lib/azure2/databases/Azure_Cosmos_DB.svg;" vertex="1" parent="1">
          <mxGeometry x="464" y="270" width="64" height="64" as="geometry" />
        </mxCell>
        <mxCell id="AqwrNknB-Fc5CEnVq79q-18" value="&lt;sub&gt;Test data for the tests are injected from Azure cosmod DB&amp;nbsp;&lt;/sub&gt;" style="text;html=1;align=center;verticalAlign=middle;resizable=0;points=[];autosize=1;strokeColor=none;fillColor=none;rounded=0;shadow=0;" vertex="1" parent="1">
          <mxGeometry x="360" y="200" width="270" height="20" as="geometry" />
        </mxCell>
        <mxCell id="AqwrNknB-Fc5CEnVq79q-19" value="" style="edgeStyle=orthogonalEdgeStyle;rounded=0;orthogonalLoop=1;jettySize=auto;html=1;endArrow=none;" edge="1" parent="1" source="AqwrNknB-Fc5CEnVq79q-16" target="AqwrNknB-Fc5CEnVq79q-18">
          <mxGeometry relative="1" as="geometry">
            <mxPoint x="496" y="160" as="targetPoint" />
            <mxPoint x="496" y="270" as="sourcePoint" />
          </mxGeometry>
        </mxCell>
        <mxCell id="AqwrNknB-Fc5CEnVq79q-22" value="Git hub actions&lt;br&gt;Creates aks for&lt;br&gt;running tests" style="text;html=1;align=center;verticalAlign=middle;resizable=0;points=[];autosize=1;strokeColor=none;fillColor=none;" vertex="1" parent="1">
          <mxGeometry x="190" y="55" width="100" height="50" as="geometry" />
        </mxCell>
        <mxCell id="AqwrNknB-Fc5CEnVq79q-23" value="Azure kubernetes services&lt;br&gt;creates containers on run time&amp;nbsp;&lt;br&gt;and runs tests on it.&amp;nbsp;" style="text;html=1;align=center;verticalAlign=middle;resizable=0;points=[];autosize=1;strokeColor=none;fillColor=none;" vertex="1" parent="1">
          <mxGeometry x="380" y="55" width="180" height="50" as="geometry" />
        </mxCell>
        <mxCell id="AqwrNknB-Fc5CEnVq79q-24" value="" style="sketch=0;aspect=fixed;html=1;points=[];align=center;image;fontSize=12;image=img/lib/mscae/Azure_Test_Plans.svg;rounded=0;shadow=0;" vertex="1" parent="1">
          <mxGeometry x="640" y="99" width="45" height="50" as="geometry" />
        </mxCell>
      </root>
    </mxGraphModel>
  </diagram>
</mxfile>
